# xmcd
#
# Track frame offsets:
#	150
#	23671
#	39303
#	58725
#	77288
#	99063
#	117197
#	135726
#	152012
#	170966
#	193082
#	216234
#	234394
#	246744
#	268528
#	283821
#	305112
#
# Disc length: 4418
#
# Revision: 1
# Processed by: cddbd v1.5.1PL0 Copyright (c) Steve Scherf et al.
# Submitted via: ExactAudioCopy v0.90b3
# Normalized: r0:DSETVAR1
#
DISCID=f0114011
DTITLE=Various Artist - Alternate Roots
DYEAR=1999
DGENRE=Folk/Rock
TTITLE0=Blue Rodeo - Hasn't Hit Me Yet
TTITLE1=Lucinda Williams - Can't Let Go
TTITLE2=John Hiatt - Cry Love
TTITLE3=Wilco - Say You Miss Me
TTITLE4=Emmylou Harris - Wrecking Ball
TTITLE5=Steve Earle - I Ain't Ever Satisfied
TTITLE6=Blackie and the Rodeo Kings - Calling on the Angels
TTITLE7=Maria McKee - I Can't Make It Alone
TTITLE8=Son Volt - Medicine Hat
TTITLE9=Kate and Anna McGarrigle - Goin' Back to Harlan
TTITLE10=Willie Nelson - The Maker
TTITLE11=Kim Richey - I'm Alright
TTITLE12=Golden Smog - Looking Forward to Seeing You
TTITLE13=Bruce Cockburn - Last Night in the World
TTITLE14=Nick Lowe - I Live on a Battlefield
TTITLE15=Lynn Miles - Sunset Blvd
TTITLE16=Whiskeytown - Not Home Anymore
EXTD=
EXTT0=
EXTT1=
EXTT2=
EXTT3=
EXTT4=
EXTT5=
EXTT6=
EXTT7=
EXTT8=
EXTT9=
EXTT10=
EXTT11=
EXTT12=
EXTT13=
EXTT14=
EXTT15=
EXTT16=
PLAYORDER=
